<?xml version="1.0" encoding="utf-8"?>
<!-- Generator: Adobe Illustrator 23.0.6, SVG Export Plug-In . SVG Version: 6.00 Build 0)  -->
<svg version="1.1" id="Camada_1" xmlns="http://www.w3.org/2000/svg" xmlns:xlink="http://www.w3.org/1999/xlink" x="0px" y="0px"
	 viewBox="0 0 1080 1080" style="enable-background:new 0 0 1080 1080;" xml:space="preserve">
<style type="text/css">
	.st0{fill:#333333;}
	.st1{fill:#F2F2F2;}
	.st2{fill:url(#SVGID_1_);}
	.st3{fill:url(#SVGID_2_);}
	.st4{fill:url(#SVGID_3_);}
	.st5{fill:#F7931E;}
	.st6{fill:url(#SVGID_4_);}
	.st7{fill:url(#SVGID_5_);}
	.st8{fill:url(#SVGID_6_);}
	.st9{fill:url(#SVGID_7_);}
</style>
<g>
	<g>
		<path d="M79.84,576.76V409.18h33.28v167.58H79.84z"/>
		<path d="M293.18,409.18v167.58H259.9V466.32l-23.18,110.43h-40.41l-23.37-110.43v110.43h-33.28V409.18h46.15l30.7,136.18
			l30.51-136.18H293.18z"/>
		<path d="M319.73,409.18h73.49c6.67,0,12.41,2.21,17.23,6.63c4.89,4.49,7.33,9.9,7.33,16.24v43.18c0,12.74-4.89,23.01-14.66,30.8
			c-9.18,7.33-20.64,10.99-34.37,10.99h-15.75v59.72h-33.28V409.18z M353.01,440.18v45.86h15.75c10.5,0,15.75-3.6,15.75-10.8v-35.06
			H353.01z"/>
		<path d="M469.38,545.76h55.46v31H436.1V409.18h88.74v31h-55.46v37.24h46.15v31.1h-46.15V545.76z"/>
		<path d="M575.16,517.04v59.72h-33.28V409.18h73.49c6.67,0,12.41,2.21,17.23,6.63c4.89,4.49,7.33,9.9,7.33,16.24v43.18
			c0,10.96-4.26,19.71-12.78,26.25c8.52,6.54,12.78,15.35,12.78,26.44v48.83h-33.28v-48.83c0-3.04-1.19-5.65-3.57-7.82
			c-2.38-2.05-5.15-3.07-8.32-3.07H575.16z M594.77,486.03c3.17,0,5.94-1.05,8.32-3.17c2.38-2.05,3.57-4.59,3.57-7.63v-35.06h-31.5
			v45.86H594.77z"/>
		<path d="M663.8,576.76V409.18h33.28v167.58H663.8z"/>
		<path d="M755.72,545.76h31.5V409.18h33.28v144.7c0,6.34-2.44,11.75-7.33,16.24c-4.82,4.42-10.57,6.63-17.23,6.63H747
			c-6.67,0-12.42-2.21-17.23-6.63c-4.89-4.49-7.33-9.9-7.33-16.24v-144.7h33.28V545.76z"/>
		<path d="M1000.16,409.18v167.58h-33.28V466.32L943.7,576.76h-40.41l-23.37-110.43v110.43h-33.28V409.18h46.16l30.7,136.18
			L954,409.18H1000.16z"/>
	</g>
	<g>
		<g>
			<path class="st5" d="M222.64,622.94h17.55c14.8,0,25.02,10.15,25.02,23.4v0.13c0,13.25-10.22,23.54-25.02,23.54h-17.55V622.94z
				 M240.19,662.48c9.89,0,16.34-6.66,16.34-15.87v-0.14c0-9.21-6.46-16.01-16.34-16.01h-9.28v32.01H240.19z"/>
		</g>
		<g>
			<path class="st5" d="M336.22,622.94h8.27v47.08h-8.27V622.94z"/>
		</g>
		<g>
			<path class="st5" d="M415.5,646.61v-0.14c0-13.18,10.09-24.34,24.28-24.34c8.2,0,13.25,2.29,18.09,6.39l-5.25,6.25
				c-3.63-3.09-7.2-5.04-13.18-5.04c-8.67,0-15.27,7.6-15.27,16.61v0.13c0,9.68,6.39,16.81,16.01,16.81c4.44,0,8.47-1.41,11.37-3.56
				v-8.81h-12.04v-7.2h20.04v19.77c-4.64,3.97-11.3,7.33-19.64,7.33C425.18,670.82,415.5,660.33,415.5,646.61z"/>
		</g>
		<g>
			<path class="st5" d="M531.29,622.94h8.27v47.08h-8.27V622.94z"/>
		</g>
		<g>
			<path class="st5" d="M624.22,630.61h-14.93v-7.67h38.2v7.67h-14.93v39.41h-8.34V630.61z"/>
		</g>
		<g>
			<path class="st5" d="M727.37,622.6h7.67l20.71,47.41h-8.74l-4.78-11.36h-22.26l-4.84,11.36h-8.47L727.37,622.6z M739.21,651.32
				l-8.14-18.83L723,651.32H739.21z"/>
		</g>
		<g>
			<path class="st5" d="M824.34,622.94h8.27v39.54h24.75v7.53h-33.02V622.94z"/>
		</g>
	</g>
</g>
</svg>
